<svg xmlns="http://www.w3.org/2000/svg" viewBox="0 0 64 64" width="64" height="64">
  <rect width="64" height="64" rx="14" fill="#0D0D1A"/>
  <path d="M20 28 C20 22, 26 18, 32 18 C38 18, 44 22, 44 28 L44 36 C44 42, 38 46, 32 46 C26 46, 20 42, 20 36 Z" fill="#FF9D00" opacity="0.9"/>
  <circle cx="26" cy="30" r="2.5" fill="#1A0A00"/>
  <circle cx="38" cy="30" r="2.5" fill="#1A0A00"/>
  <path d="M26 38 Q32 42 38 38" stroke="#1A0A00" stroke-width="2" fill="none"/>
  <path d="M20 26 C16 24, 16 30, 20 32" stroke="#FF9D00" stroke-width="2" fill="none"/>
  <path d="M44 26 C48 24, 48 30, 44 32" stroke="#FF9D00" stroke-width="2" fill="none"/>
</svg>
